<?xml version="1.0" encoding="utf-8"?>
<!-- Generator: Adobe Illustrator 20.1.0, SVG Export Plug-In . SVG Version: 6.00 Build 0)  -->
<svg version="1.1" id="Layer_1" xmlns="http://www.w3.org/2000/svg" xmlns:xlink="http://www.w3.org/1999/xlink" x="0px" y="0px"
	 viewBox="0 0 1417.3 1133.9" style="enable-background:new 0 0 1417.3 1133.9;" xml:space="preserve">
<style type="text/css">
	.st0{display:none;}
	.st1{display:inline;}
	.st2{fill:#010101;}
	.st3{display:inline;fill:none;stroke:#000000;stroke-width:30;stroke-miterlimit:10;}
	.st4{display:inline;fill:none;stroke:#000000;stroke-width:30;stroke-linecap:round;stroke-miterlimit:10;}
	.st5{display:inline;fill:#EC008C;}
	.st6{display:inline;fill:#EC008C;stroke:#000000;stroke-width:30;stroke-linecap:round;stroke-miterlimit:10;}
	.st7{fill:#E30051;stroke:#1CFFAE;stroke-miterlimit:10;}
	.st8{fill:none;stroke:#000000;stroke-width:30;stroke-miterlimit:10;}
	.st9{fill:none;stroke:#000000;stroke-width:30;stroke-linecap:round;stroke-miterlimit:10;}
	
		.st10{display:inline;fill:#EC008C;stroke:#000000;stroke-width:30;stroke-linecap:round;stroke-linejoin:round;stroke-miterlimit:10;}
	.st11{display:inline;fill:none;stroke:#000000;stroke-width:30;stroke-linecap:round;stroke-linejoin:round;stroke-miterlimit:10;}
	.st12{fill:#EC008C;}
	.st13{fill:none;stroke:#000000;stroke-width:30;stroke-linecap:round;stroke-linejoin:round;stroke-miterlimit:10;}
	.st14{display:inline;fill:none;stroke:#000000;stroke-width:40;stroke-linecap:round;stroke-linejoin:round;stroke-miterlimit:10;}
	.st15{display:inline;stroke:#000000;stroke-width:30;stroke-linecap:round;stroke-linejoin:round;stroke-miterlimit:10;}
</style>
<g id="Layer_1_1_" class="st0">
	<g class="st1">
		<path class="st2" d="M1380.5,617.8V502c0-5.4-2.7-10.6-6.9-13.8c-4.4-3.2-10.1-4.2-15.3-2.5l-344.8,109.6
			c-7.1,2.3-11.9,8.8-11.9,16.3v115.9v0.1v221.5c-18.1-12.5-41.2-19.3-65.5-19.3c-25.7,0-50,7.7-68.6,21.6c-20,15-31,35.4-31,57.5
			c0,22.1,11,42.5,31,57.5c18.6,13.9,42.8,21.6,68.6,21.6c25.8,0,50-7.7,68.6-21.6c20-15,31-35.4,31-57.5V739.9l310.7-98.8V839
			c-18.1-12.5-41.2-19.3-65.5-19.3c-25.6,0-50,7.7-68.6,21.6c-20,15-31,35.4-31,57.5c0,22.1,11,42.5,31,57.5
			c18.6,13.9,42.8,21.6,68.6,21.6c25.8,0,50-7.7,68.6-21.6c20-15,31-35.4,31-57.5V617.9C1380.5,617.8,1380.5,617.8,1380.5,617.8z
			 M936.1,1053.8c-35.5,0-65.5-20.6-65.5-45c0-24.4,29.9-45,65.5-45c35.5,0,65.5,20.6,65.5,45
			C1001.6,1033.3,971.6,1053.8,936.1,1053.8z M1035.7,704.1V624l310.7-98.7v80.1L1035.7,704.1z M1281.1,943.8
			c-35.5,0-65.5-20.6-65.5-45s29.9-45,65.5-45c35.5,0,65.5,20.6,65.5,45C1346.4,923.2,1316.5,943.8,1281.1,943.8z"/>
	</g>
</g>
<g id="Layer_3" class="st0">
	<path class="st3" d="M493.8,547.5c0,33.8-58.2,61.2-130,61.2l0,0c-71.8,0-130-27.4-130-61.2V227c0-33.8,58.2-61.2,130-61.2l0,0
		c71.8,0,130,27.4,130,61.2V547.5z"/>
	<path class="st4" d="M539.5,467.9v100.7c0,45.7-78.7,82.7-175.8,82.7l0,0c-97.1,0-175.8-37-175.8-82.7V467.9"/>
	<path class="st4" d="M493.8,289.9"/>
	<path class="st4" d="M493.8,338.1"/>
	<path class="st4" d="M493.8,386.4"/>
	<path class="st4" d="M493.8,434.6"/>
	<path class="st4" d="M493.8,482.9"/>
	<path class="st4" d="M233.8,289.9"/>
	<path class="st4" d="M233.8,338.1"/>
	<path class="st4" d="M233.8,386.4"/>
	<path class="st4" d="M233.8,434.6"/>
	<path class="st4" d="M233.8,482.9"/>
	<path class="st4" d="M315.5,178.8"/>
	<path class="st4" d="M363.8,178.8"/>
	<path class="st4" d="M412,178.8"/>
	<path class="st4" d="M315.5,600.9"/>
	<path class="st4" d="M363.8,600.9"/>
	<path class="st4" d="M412,600.9"/>
	<path class="st3" d="M388.6,906.1c0,11.7-11.1,21.2-24.8,21.2l0,0c-13.7,0-24.8-9.5-24.8-21.2V709.2c0-11.7,11.1-21.2,24.8-21.2
		l0,0c13.7,0,24.8,9.5,24.8,21.2V906.1z"/>
	<path class="st3" d="M338.9,901.8H216.3c-15.7,0-28.3,12.7-28.3,28.3v29.7c0,15.7,12.7,28.3,28.3,28.3h294.9
		c15.7,0,28.3-12.7,28.3-28.3v-29.7c0-15.7-12.7-28.3-28.3-28.3H388.6"/>
	<line class="st4" x1="288" y1="298" x2="442" y2="298"/>
	<line class="st4" x1="288" y1="348" x2="442" y2="348"/>
	<line class="st4" x1="288" y1="398" x2="442" y2="398"/>
	<path class="st5" d="M1052.2,655.4c-36.9,0-71.8-6.9-98.3-19.3c-30.1-14.2-46.7-34.4-46.7-56.8V258.8c0-22.5,16.6-42.7,46.7-56.8
		c26.5-12.5,61.4-19.3,98.3-19.3s71.8,6.9,98.3,19.3c30.1,14.2,46.7,34.4,46.7,56.8v320.5c0,22.5-16.6,42.7-46.7,56.8
		C1124,648.6,1089,655.4,1052.2,655.4z M1052.2,212.6c-32.6,0-62.9,5.9-85.5,16.5c-18.5,8.7-29.5,19.8-29.5,29.7v320.5
		c0,9.9,11,21,29.5,29.7c22.6,10.6,53,16.5,85.5,16.5s62.9-5.9,85.5-16.5c18.4-8.7,29.5-19.8,29.5-29.7V258.8c0-9.9-11-21-29.5-29.7
		C1115.1,218.4,1084.7,212.6,1052.2,212.6z"/>
	<path class="st5" d="M1052.2,698c-49.1,0-95.5-9.1-130.7-25.7c-38.8-18.2-60.1-43.8-60.1-72.1V499.6c0-8.3,6.7-15,15-15
		s15,6.7,15,15v100.7c0,32,66,67.7,160.8,67.7s160.8-35.7,160.8-67.7V499.6c0-8.3,6.7-15,15-15s15,6.7,15,15v100.7
		c0,28.2-21.3,53.8-60.1,72.1C1147.7,688.9,1101.3,698,1052.2,698z"/>
	<path class="st6" d="M1182.2,321.6"/>
	<path class="st6" d="M1182.2,369.8"/>
	<path class="st6" d="M1182.2,418.1"/>
	<path class="st6" d="M1182.2,466.3"/>
	<path class="st6" d="M1182.2,514.6"/>
	<path class="st6" d="M922.2,321.6"/>
	<path class="st6" d="M922.2,369.8"/>
	<path class="st6" d="M922.2,418.1"/>
	<path class="st6" d="M922.2,466.3"/>
	<path class="st6" d="M922.2,514.6"/>
	<path class="st6" d="M1003.9,210.6"/>
	<path class="st6" d="M1052.2,210.6"/>
	<path class="st6" d="M1100.4,210.6"/>
	<path class="st6" d="M1003.9,632.6"/>
	<path class="st6" d="M1052.2,632.6"/>
	<path class="st6" d="M1100.4,632.6"/>
	<path class="st5" d="M1052.2,974c-22,0-39.8-16.2-39.8-36.2V740.9c0-19.9,17.9-36.2,39.8-36.2c22,0,39.8,16.2,39.8,36.2v196.9
		C1092,957.8,1074.1,974,1052.2,974z M1052.2,734.8c-5.6,0-9.8,3.3-9.8,6.2v196.9c0,2.9,4.2,6.2,9.8,6.2c5.6,0,9.8-3.3,9.8-6.2
		V740.9C1062,738,1057.8,734.8,1052.2,734.8z"/>
	<path class="st5" d="M1199.6,1034.9H904.7c-23.9,0-43.3-19.4-43.3-43.3v-29.7c0-23.9,19.4-43.3,43.3-43.3h122.6v30H904.7
		c-7.4,0-13.3,6-13.3,13.3v29.7c0,7.4,6,13.3,13.3,13.3h294.9c7.4,0,13.3-6,13.3-13.3v-29.7c0-7.4-6-13.3-13.3-13.3H1077v-30h122.6
		c23.9,0,43.3,19.4,43.3,43.3v29.7C1242.9,1015.4,1223.5,1034.9,1199.6,1034.9z"/>
	<path class="st5" d="M1130.4,344.7h-154c-8.3,0-15-6.7-15-15s6.7-15,15-15h154c8.3,0,15,6.7,15,15S1138.7,344.7,1130.4,344.7z"/>
	<path class="st5" d="M1130.4,394.7h-154c-8.3,0-15-6.7-15-15s6.7-15,15-15h154c8.3,0,15,6.7,15,15S1138.7,394.7,1130.4,394.7z"/>
	<path class="st5" d="M1130.4,444.7h-154c-8.3,0-15-6.7-15-15s6.7-15,15-15h154c8.3,0,15,6.7,15,15S1138.7,444.7,1130.4,444.7z"/>
</g>
<g id="Layer_4">
	<g>
		<path class="st7" d="M851.9,370.8c-39.3-50.8-91.8-78.8-148-78.8c-56.2,0-108.8,28-148,78.8c-38.4,49.7-59.5,115.5-59.5,185.3
			c0,69.8,21.1,135.6,59.5,185.3c39.3,50.8,91.8,78.8,148,78.8c56.2,0,108.8-28,148-78.8c38.4-49.7,59.5-115.5,59.5-185.3
			C911.4,486.3,890.3,420.5,851.9,370.8z M703.8,322.1c94.4,0,171.9,97.7,177.3,220.4c-40.3,1.4-48.2-12.5-52.9-28.3
			c-2.4-8.1-1.7-23.8-1-39c1.6-34.1,3.5-76.6-25.2-96.6c-62.8-43.8-149.5-20.5-186.5-10.5c-5,1.4-10.7,2.9-12.9,3.2
			c-1-0.3-2.6-1.5-4.4-3.2C627.8,339.2,664.3,322.1,703.8,322.1z M703.8,790.2c-97.9,0-177.6-105-177.6-234.1
			c0-64.6,19.9-123.1,52.1-165.5c9.4,8.7,18.3,10.7,24.4,10.7c4.3,0,9.4-1.3,20.5-4.3c33-8.9,110.2-29.6,161.5,6.2
			c15.2,10.6,13.6,43.9,12.4,70.7c-0.9,18.5-1.7,36,2.2,49c6,20.1,16.9,33.7,33.2,41.6c11.4,5.5,25.3,8.2,43,8.2
			c1.7,0,3.5,0,5.3-0.1C874.6,693.9,797.6,790.2,703.8,790.2z"/>
		<path class="st7" d="M899.3,405.9c-5.7,0-11.2-3.3-13.7-8.8c-26.9-59.1-79.9-102.2-141.8-115.2c-8.1-1.7-13.3-9.7-11.6-17.8
			c1.7-8.1,9.7-13.3,17.8-11.6c71.2,15,132.2,64.4,163,132.1c3.4,7.5,0.1,16.4-7.4,19.9C903.5,405.4,901.4,405.9,899.3,405.9z"/>
		<path class="st7" d="M916.2,336c-4.6,0-9.1-2.1-12-6c-28.5-37.9-66.2-67.4-109.2-85.3c-7.6-3.2-11.3-12-8.1-19.6
			c3.2-7.6,12-11.3,19.6-8.1c47.9,20,89.9,52.8,121.6,95c5,6.6,3.6,16-3,21C922.5,335,919.3,336,916.2,336z"/>
		<path class="st7" d="M664.1,860.2c-1,0-2.1-0.1-3.1-0.3c-71.2-15.1-132.1-64.6-162.8-132.4c-3.4-7.5-0.1-16.4,7.5-19.9
			c7.5-3.4,16.4-0.1,19.9,7.5c26.8,59.2,79.8,102.3,141.7,115.4c8.1,1.7,13.3,9.7,11.6,17.8C677.3,855.3,671,860.2,664.1,860.2z"/>
		<path class="st7" d="M596.2,890.1c-2.2,0-4.4-0.5-6.6-1.5c-49.2-23.9-90.9-61.5-120.5-108.5c-4.4-7-2.3-16.3,4.7-20.7
			c7-4.4,16.3-2.3,20.7,4.7c26.6,42.3,64.1,76,108.2,97.5c7.4,3.6,10.5,12.6,6.9,20.1C607.1,887,601.7,890.1,596.2,890.1z"/>
	</g>
	<ellipse class="st8" cx="-492.3" cy="674.1" rx="192.6" ry="249.1"/>
	<path class="st8" d="M-617.5,484.8c0,0,10.6,19.5,24.1,19.5c13.5,0,120.4-44.4,190.6,4.6c33.9,23.7,11.4,97.7,20.4,127.7
		c9,30,30.2,43.7,85.5,37.6"/>
	<path class="st9" d="M-449.3,385.2c67.7,14.2,123.9,61,152.4,123.7"/>
	<path class="st9" d="M-395.4,348.8c45.9,19.1,85.6,50.5,115.4,90.2"/>
	<path class="st9" d="M-532.1,963.1c-67.7-14.3-123.8-61.2-152.2-123.9"/>
	<path class="st9" d="M-600,993.1c-46.8-22.8-86.4-58.6-114.4-103"/>
</g>
<g id="Layer_11" class="st0">
	<path class="st1" d="M674.9,298.3c-44.6,0-80.8-36.3-80.8-80.8s36.3-80.8,80.8-80.8s80.8,36.3,80.8,80.8S719.5,298.3,674.9,298.3z
		 M674.9,176.7c-22.5,0-40.8,18.3-40.8,40.8s18.3,40.8,40.8,40.8s40.8-18.3,40.8-40.8S697.4,176.7,674.9,176.7z"/>
	<path class="st1" d="M492.8,930.7c-8.5,0-16.3-5.4-19-13.9c-3.4-10.5,2.5-21.8,13-25.1c1.3-0.4,133.5-42.6,161.2-52.3
		c28.8-10.1,33.6-16.1,34.3-30.1c1.5-29.8,1.1-58.3-1.4-95.3c-1.9-28-3.6-31.7-68.8-97.6c-31.7-32-53.2-80.3-64-143.6
		c-7.7-44.8-10.2-97.8-7.8-162.1c0.5-12.1-2.4-19.6-5.3-21.7c-2.2-1.5-6.8-1.1-12.2,1.2c-27,11.4-75.1,34.1-96.4,44.7l-3.2,1.6
		c-7.2,3.6-21,10.4-26.6,15.4c19,24.1,102.1,128.4,103,129.4c6.9,8.6,5.5,21.2-3.2,28.1c-8.6,6.9-21.2,5.5-28.1-3.2
		c-0.9-1.1-89.4-112.1-104.8-131.7c-9.3-11.8-9.3-23-7.6-30.2c4.9-21.5,28.6-33.3,49.5-43.7l3.1-1.6c22.3-11.1,70.7-34,98.8-45.8
		c18.6-7.8,36.5-6.9,50.5,2.7c15.5,10.7,23.5,30.6,22.6,56.1c-5.2,139.5,14.5,229.8,60.3,276.1c66.3,67,77.3,79.4,80.3,123.1
		c2.5,38.1,3,68.9,1.4,99.9c-2.3,45.3-39,58.2-61,65.9c-28.2,9.9-156.8,50.9-162.3,52.6C496.8,930.4,494.8,930.7,492.8,930.7z"/>
	<path class="st1" d="M800.6,485.6c-1.7,0-3.4-0.1-5.2-0.3c-12.5-1.3-24.5-7.3-40.2-19.9c-66.4-53.2-84-70.1-104.5-89.8
		c-8.6-8.2-17.5-16.8-30.9-28.8c-8.2-7.4-8.9-20-1.5-28.2c7.4-8.2,20-8.9,28.2-1.5c13.9,12.5,23,21.2,31.9,29.7
		c19.8,19,36.9,35.4,101.8,87.4c8.8,7.1,15.4,10.9,19.5,11.3c3.2,0.3,7.6-1.2,15.7-4.2c3.1-1.1,6.6-2.4,10.6-3.7
		c25.4-8.5,118-49.2,119-49.6c10.1-4.5,21.9,0.1,26.4,10.2c4.5,10.1-0.1,21.9-10.2,26.4c-3.9,1.7-95.3,41.9-122.4,51
		c-3.4,1.1-6.4,2.3-9.4,3.4C819.8,482.3,810.9,485.6,800.6,485.6z"/>
	<path class="st1" d="M973.7,918.6c-9.2,0-17.5-6.4-19.5-15.7c-1.5-6.8-36.6-166.4-41.6-191.9c-0.2-1-0.4-2.1-0.6-3.3
		c-8.3-43.5-19.9-50.1-30.2-50.9c-37.6-2.8-148-9.4-149.2-9.5c-11-0.7-19.4-10.1-18.8-21.2c0.7-11,10.1-19.4,21.2-18.8
		c1.1,0.1,111.8,6.7,149.7,9.5c15.8,1.2,37.8,8.7,52.7,37.9c8.4,16.5,11.9,34.6,13.9,45.4c0.2,1.1,0.4,2.1,0.6,3
		c5,25.1,41.1,189.4,41.4,191.1c2.4,10.8-4.5,21.5-15.2,23.8C976.6,918.5,975.1,918.6,973.7,918.6z"/>
	<path class="st1" d="M952,376.5c-32,0-58-26-58-58c0-32,26-58,58-58c32,0,58,26,58,58S984,376.5,952,376.5z M952,300.5
		c-9.9,0-18,8.1-18,18c0,9.9,8.1,18,18,18c9.9,0,18-8.1,18-18C970,308.5,961.9,300.5,952,300.5z"/>
	<path class="st1" d="M694.7,598.9c-3.2,0-6.5-0.8-9.5-2.4c-27.9-15.2-44.4-47.2-48.9-95.2c-3.1-32.8,0.6-61.5,0.8-62.7
		c1.5-11,11.5-18.7,22.5-17.2c10.9,1.5,18.6,11.5,17.2,22.4l0,0c-3.2,24.8-5.1,99.7,27.6,117.6c9.7,5.3,13.3,17.4,8,27.1
		C708.7,595.1,701.8,598.9,694.7,598.9z"/>
</g>
<g id="Layer_13" class="st0">
	<path class="st5" d="M194,936c-14.8,0-26.9-7.8-33.3-21.4c-4.1-8.7-4.6-17-4.6-18.5c0-0.2,0-0.4,0-0.5V587.7
		c0-43.9,14.6-85.3,41-116.5c27-32,63.2-49.6,101.8-49.6h144.2c38.6,0,74.8,17.6,101.8,49.6c26.4,31.2,41,72.6,41,116.5v307.8
		c0,0.3,0,0.7,0,1c-1,14.7-12.4,36.4-39.9,36.4c-27.8,0-38.8-22-39.5-36.8c0-0.2,0-0.4,0-0.7V598.9c0-8.3,6.7-15,15-15s15,6.7,15,15
		v296c0.8,8.1,7.1,8.1,9.5,8.1c2.2,0,8.9,0,10-8.2v-307c0-75-50.6-136.1-112.8-136.1H298.9c-62.2,0-112.8,61-112.8,136.1v307.4
		c0.1,1.3,0.6,4.6,2,7.3c1.4,2.8,2.8,3.6,5.9,3.6c3.1,0,4.4-0.8,5.8-3.6c1.4-2.7,1.9-6,2-7.3V598.9c0-0.2,0-0.3,0-0.5
		c1.3-39.7,21.6-70.9,54.4-83.3c7.7-2.9,16.4,0.9,19.4,8.7c2.9,7.7-0.9,16.4-8.7,19.4c-21,8-34.1,28.9-35.1,56v296.4
		c0,0.2,0,0.3,0,0.5C231.3,912.1,220.8,936,194,936z"/>
	<path class="st5" d="M371.1,400.9c-9.6,0-19-1.3-28.1-4c-20.7-6-39.4-18.8-52.6-36c-13.6-17.8-20.8-39.1-20.8-61.6
		c0-56,45.5-101.5,101.5-101.5c56,0,101.5,45.6,101.5,101.5C472.6,355.4,427,400.9,371.1,400.9z M371.1,227.9
		c-39.4,0-71.5,32.1-71.5,71.5c0,31.7,21.3,60,51.7,68.8c6.4,1.8,13.1,2.8,19.8,2.8c39.4,0,71.5-32.1,71.5-71.5
		C442.6,260,410.5,227.9,371.1,227.9z"/>
	<path class="st10" d="M347.1,436.6"/>
	<path class="st5" d="M447.6,894.8H292.5c-23.4,0-42.4-18.1-42.4-40.4V529.1c0-8.3,6.7-15,15-15s15,6.7,15,15v325.3
		c0,5.7,5.6,10.4,12.4,10.4h155.1c6.9,0,12.4-4.7,12.4-10.4V529.7c0-8.3,6.7-15,15-15s15,6.7,15,15v324.8
		C490,876.7,471,894.8,447.6,894.8z"/>
	<path class="st5" d="M521.5,613.9c-8.1,0-14.7-6.4-15-14.5c-0.8-26.6-13.5-47.4-33.7-55.9c-7.7-3.2-11.3-12-8.1-19.6
		c3.2-7.7,12-11.3,19.6-8.1c31.5,13.1,51,43.9,52.2,82.6c0.3,8.3-6.2,15.2-14.5,15.5C521.8,613.9,521.7,613.9,521.5,613.9z"/>
	<path class="st11" d="M876.6,529.1c-25.6,9.7-43.6,34.8-44.7,69.8v296.6c0,0-0.8,25.4-22.8,25.4s-22.9-25.4-22.9-25.4V587.7
		c0-83.4,57.2-151.1,127.8-151.1h144.2c70.6,0,127.8,67.6,127.8,151.1v307.8c0,0-1.5,22.4-25,22.4s-24.5-22.4-24.5-22.4V598.9"/>
	<path class="st3" d="M1072.6,299.4c0,47.8-38.7,86.5-86.5,86.5c-8.3,0-16.4-1.2-24-3.4c-36.1-10.4-62.5-43.7-62.5-83.2
		c0-47.8,38.7-86.5,86.5-86.5S1072.6,251.6,1072.6,299.4z"/>
	<path class="st11" d="M962.1,436.6"/>
	<path class="st11" d="M1090,529.7v324.8c0,14-12.3,25.4-27.4,25.4H907.5c-15.1,0-27.4-11.4-27.4-25.4V529.1"/>
	<path class="st11" d="M1093.6,529.7c24.7,10.3,41.9,35,43,69.2"/>
</g>
<g id="Layer_5" class="st0">
	<path class="st1" d="M676.6,1015.4h-322c-5.4,0-10.6-2.2-14.4-6.1L215.3,879.4c-3.2-3.4-5.2-7.8-5.5-12.4L187.3,560
		c-0.4-6.1,1.9-12.1,6.5-16.2L366,386.5c3.9-3.6,9.1-5.5,14.5-5.2l294.6,14.3c5.5,0.3,10.6,2.8,14.1,6.9l167.3,193
		c3.3,3.9,5.1,8.9,4.9,14l-9.1,209.7c-0.2,4.6-1.9,8.9-5,12.3l-155.6,177C687.8,1012.9,682.3,1015.4,676.6,1015.4z M363.1,975.4
		h304.5l145-164.9l8.5-194.7L664.6,435.1l-277.7-13.5L227.9,566.7l21.2,290.2L363.1,975.4z"/>
	<path class="st1" d="M596.7,593.5c-0.8,0-1.6,0-2.4-0.1l-195.7-23.7c-9-1.1-16.1-8-17.4-17l-21.5-148.5c-1.6-10.9,6-21.1,16.9-22.7
		c10.9-1.6,21.1,6,22.7,16.9l19.3,133.4L585,551.9l71.1-145.2c4.9-9.9,16.8-14,26.8-9.2c9.9,4.9,14,16.8,9.2,26.8l-77.4,157.9
		C611.3,589.2,604.3,593.5,596.7,593.5z"/>
	<path class="st1" d="M667.6,748.2h-328c-6.5,0-12.5-3.1-16.3-8.4s-4.7-12-2.6-18.1l61.5-178.5c3.6-10.4,15-16,25.4-12.4
		c10.4,3.6,16,15,12.4,25.4l-52.3,152h268.8l-57.9-126.4c-4.6-10-0.2-21.9,9.9-26.5c10-4.6,21.9-0.2,26.5,9.9l70.9,154.8
		c2.8,6.2,2.3,13.4-1.4,19.1C680.7,744.8,674.4,748.2,667.6,748.2z"/>
	<path class="st1" d="M516.7,1015.4c-6.7,0-13-3.3-16.7-8.9L338.7,763.1l-87.9,119.3c-6.6,8.9-19.1,10.8-28,4.2
		c-8.9-6.6-10.8-19.1-4.2-28l104.8-142.3c3.9-5.3,10.1-8.3,16.6-8.1c6.5,0.2,12.6,3.5,16.2,8.9l159.1,239.9l134.8-238.7
		c1.5-2.6,3.6-4.9,6.1-6.6L830,592.1c9.1-6.3,21.5-4,27.8,5.1s4,21.6-5.1,27.8l-170,117l-148.6,263.1c-3.4,6.1-9.7,9.9-16.7,10.2
		C517.2,1015.3,516.9,1015.4,516.7,1015.4z"/>
	<path class="st1" d="M983,521.5c-11,0-20-9-20-20V178.5c0-11,9-20,20-20s20,9,20,20v322.9C1003,512.5,994,521.5,983,521.5z"/>
	<path class="st1" d="M1144.5,360H821.5c-11,0-20-9-20-20s9-20,20-20h322.9c11,0,20,9,20,20S1155.5,360,1144.5,360z"/>
</g>
<g id="Layer_9" class="st0">
	<path class="st1" d="M875.3,622l-132-228c-3-5.1-8.1-8.7-14-9.7l-200-34c-1.8-0.3-3.6-0.4-5.4-0.2l-118,12c-4.2,0.4-8.2,2.2-11.4,5
		l-144,130c-3.1,2.8-5.3,6.6-6.2,10.7l-24,114c-0.4,1.8-0.5,3.7-0.4,5.5l12,172c0.3,4.7,2.3,9,5.5,12.4l120,126
		c2.2,2.3,4.9,4,7.9,5.1l154,54c2.1,0.8,4.4,1.1,6.6,1.1c2.3,0,4.6-0.4,6.8-1.2l184-66c1.8-0.7,3.6-1.6,5.1-2.7l84-62
		c3.5-2.6,6.1-6.3,7.3-10.5l64-218C878.7,632.4,878,626.7,875.3,622z M282.2,522.5l134.3-121.3l76.2-7.8l-93,142.7l-133.3,61.2
		L282.2,522.5z M260.5,633.1l134.6-61.8l1.7,265l-125.4-47L260.5,633.1z M383.2,906.7L318.7,839l84.8,31.8l61.3,64.5L383.2,906.7z
		 M425.2,575.8l241.1,157.4L426.9,835.4L425.2,575.8z M526.4,956.6l-88.6-93.3l246.7-105.2l9.4,138.4L526.4,956.6z M685.2,709.7
		L430.8,543.6L530.2,391l179.2,30.5L685.2,709.7z M776.7,837.9l-54,39.9l-9.1-134l112.2-72.9L776.7,837.9z M715.5,706.7l20.7-245.2
		l97.5,168.4L715.5,706.7z"/>
	<path class="st1" d="M1180,301c0,11-8.9,20-20,20h-136v136c0,11-9,20-20,20s-20-9-20-20V321H848c-11,0-20-9-20-20s9-20,20-20h136
		V145c0-11.1,9-20,20-20s20,8.9,20,20v136h136C1171.1,281,1180,290,1180,301z"/>
</g>
<g id="Layer_12" class="st0">
	<g class="st1">
		<path class="st12" d="M1549.6,772.3c0-0.2,0-0.4-0.1-0.7c0-0.1,0-0.2,0-0.3c0-0.1,0-0.2-0.1-0.3c0-0.2-0.1-0.3-0.1-0.5
			c0-0.2-0.1-0.3-0.1-0.5c0-0.2-0.1-0.3-0.1-0.5c0-0.1-0.1-0.3-0.1-0.4c-0.1-0.2-0.1-0.4-0.2-0.6c-0.1-0.2-0.1-0.3-0.2-0.5
			c-0.2-0.4-0.4-0.9-0.6-1.3c-0.1-0.2-0.2-0.4-0.3-0.5c0,0,0-0.1-0.1-0.1l-123.7-228.5c-0.1-0.2-0.2-0.3-0.3-0.5
			c-0.2-0.4-0.5-0.8-0.8-1.2c-0.1-0.2-0.3-0.5-0.5-0.7c-0.1-0.1-0.2-0.3-0.3-0.4c-0.1-0.2-0.3-0.3-0.4-0.5c-0.1-0.2-0.3-0.3-0.4-0.5
			c-0.2-0.2-0.3-0.3-0.5-0.5c-0.2-0.2-0.3-0.3-0.5-0.5c-0.2-0.1-0.3-0.3-0.5-0.4c-0.2-0.1-0.4-0.3-0.6-0.4c-0.2-0.1-0.4-0.3-0.6-0.4
			c-0.4-0.3-0.8-0.5-1.2-0.7c-0.2-0.1-0.4-0.2-0.6-0.3c-0.2-0.1-0.3-0.2-0.5-0.2s-0.3-0.1-0.5-0.2c-0.2-0.1-0.5-0.2-0.8-0.3
			c-0.3-0.1-0.5-0.2-0.8-0.2c0,0,0,0,0,0c-0.3-0.1-0.5-0.1-0.8-0.2c0,0-0.1,0-0.1,0l-206.6-40.9l-0.3,0c-0.2-0.1-0.5-0.1-0.7-0.1
			c-0.2,0-0.3,0-0.5-0.1c-0.1,0-0.2,0-0.4,0c-0.2,0-0.3,0-0.5,0c-0.9,0-1.8,0-2.7,0.1l-119,15c-3.1,0.4-6,1.7-8.2,3.8l-139,127
			c-2.2,2-3.8,4.7-4.5,7.6l-27,112c0,0,0,0,0,0.1c0,0.2-0.1,0.4-0.1,0.7c0,0.2-0.1,0.4-0.1,0.6c0,0.2,0,0.3-0.1,0.5c0,0,0,0,0,0
			c0,0.2,0,0.5-0.1,0.8c0,0.3,0,0.6,0,0.9v0.1c0,0.2,0,0.4,0,0.6c0,0.3,0,0.6,0.1,0.8l14,177.7c0.1,1,0.2,1.9,0.5,2.8
			c0,0.2,0.1,0.4,0.2,0.5c0.2,0.5,0.3,1,0.5,1.4c0.1,0.2,0.1,0.3,0.2,0.5c0.4,0.9,1,1.8,1.6,2.6c0.1,0.2,0.2,0.3,0.4,0.5
			c0.2,0.3,0.5,0.6,0.8,0.9l111.7,121.7c1.6,1.7,3.6,3.1,5.8,3.9l158.6,59.9l0.4,0.1c0.2,0.1,0.4,0.2,0.6,0.2c0.1,0,0.3,0.1,0.4,0.1
			c0.6,0.2,1.1,0.3,1.7,0.4c0.2,0,0.4,0.1,0.5,0.1c0.2,0,0.4,0.1,0.6,0.1c0.1,0,0.2,0,0.2,0c0.2,0,0.3,0,0.5,0c0.2,0,0.4,0,0.7,0
			c0.4,0,0.8,0,1.2-0.1c0.3,0,0.5-0.1,0.8-0.1c0.2,0,0.4-0.1,0.7-0.1c0.2,0,0.4-0.1,0.7-0.1c0.2-0.1,0.4-0.1,0.7-0.2
			c0.2-0.1,0.4-0.1,0.6-0.2c0.2-0.1,0.4-0.2,0.7-0.2c0.1-0.1,0.3-0.1,0.5-0.2l186.5-70.8c0,0,0,0,0,0c0.3-0.1,0.5-0.2,0.8-0.3
			c0.3-0.1,0.6-0.3,0.9-0.5c0.3-0.2,0.6-0.3,0.9-0.5c0.2-0.1,0.4-0.2,0.6-0.4c0,0,0,0,0,0l82-57c2.8-2,4.9-4.9,5.9-8.2l62-216
			c0-0.1,0.1-0.2,0.1-0.3c0,0,0-0.1,0-0.1c0.1-0.6,0.3-1.2,0.3-1.8c0-0.3,0.1-0.5,0.1-0.8C1549.7,773.6,1549.7,773,1549.6,772.3z
			 M1211,520l183.2,36.3l-31.9,289.4l-252.3-160.2L1211,520z M1388.3,877.5c0.3-0.6,0.5-1.2,0.7-1.8
			C1388.8,876.3,1388.6,876.9,1388.3,877.5z M1342.5,868.6l-234.1,99.1l-3.3-250L1342.5,868.6z M959.2,653.2l132.1-120.7l83.4-10.5
			l-95.2,156.1L940,732.8L959.2,653.2z M934.5,767.2l140.5-55l3.4,257l-131.5-44.9L934.5,767.2z M1053.3,1044.5l-69.8-76l101.5,34.7
			l68.6,79.2L1053.3,1044.5z M1208.1,1099.5L1118.5,996l243.1-102.9l13.1,143.2L1208.1,1099.5z M1459.7,980l-56.5,39.2l-12.8-140.1
			l119.2-73L1459.7,980z M1392.9,842.5l27.4-248.9l94.4,174.3L1392.9,842.5z"/>
		<path class="st12" d="M1389,875.7c-0.2,0.6-0.4,1.2-0.7,1.8C1388.6,876.9,1388.8,876.3,1389,875.7z"/>
		<path class="st12" d="M1549.5,775.1c-0.1,0.6-0.2,1.2-0.3,1.8C1549.3,776.4,1549.5,775.7,1549.5,775.1z"/>
		<path class="st12" d="M1389,875.7c-0.2,0.6-0.4,1.2-0.7,1.8C1388.6,876.9,1388.8,876.3,1389,875.7z"/>
	</g>
	<path class="st5" d="M1760.2,485.2c0,11-8.9,20-20,20h-112.5v112.5c0,11-8.9,20-20,20c-11,0-20-9-20-20V505.2h-112.5
		c-11,0-20-9-20-20s9-20,20-20h112.5V352.8c0-11,9-20,20-20c11.1,0,20,9,20,20v112.5h112.5C1751.2,465.2,1760.2,474.2,1760.2,485.2z
		"/>
	<polygon class="st11" points="83.7,624 -55.3,751 -82.3,863 -68.3,1041 43.7,1163 202.7,1223 389.7,1152 471.7,1095 533.7,879 
		409.7,650 202.7,609 	"/>
	<g class="st1">
		<polyline class="st13" points="202.7,609 88.7,796 -82.3,863 		"/>
		<polyline class="st13" points="533.7,879 373.7,977 389.7,1152 		"/>
		<polyline class="st13" points="202.7,1223 92.7,1096 -68.3,1041 92.7,1096 88.7,796 373.7,977 409.7,650 		"/>
		<line class="st13" x1="373.7" y1="977" x2="92.7" y2="1096"/>
	</g>
	<line class="st14" x1="606.7" y1="458.5" x2="606.7" y2="723.5"/>
	<line class="st14" x1="474.2" y1="591" x2="739.2" y2="591"/>
</g>
<g id="Layer_14" class="st0">
	<path class="st11" d="M894.1,939.9c0,21.8-17.6,39.4-39.4,39.4H558.3c-21.8,0-39.4-17.6-39.4-39.4V255.7
		c0-21.8,17.6-39.4,39.4-39.4h296.4c21.8,0,39.4,17.6,39.4,39.4V939.9z"/>
	<g class="st1">
		<path d="M809.3,286.6c8.4,0,13.8,5,13.8,8.5v530.1c0,3.5-5.4,8.5-13.8,8.5h-209c-8.4,0-13.8-5-13.8-8.5V295.1
			c0-3.5,5.4-8.5,13.8-8.5L809.3,286.6 M809.3,256.6h-209c-24.2,0-43.8,17.2-43.8,38.5v530.1c0,21.3,19.6,38.5,43.8,38.5h209
			c24.2,0,43.8-17.2,43.8-38.5V295.1C853,273.9,833.4,256.6,809.3,256.6L809.3,256.6z"/>
	</g>
	<path class="st11" d="M895.9,619.7c26.9,2.3,14.2,197.4,42.8,201.1c26.8,0,12.6-331.1,55.2-331.1c36.7,0,33.1,313.9,57.7,314.9
		c33,1.3,28.5-278.4,59-278.7c27.1-0.2,28,197,44.7,197.3c14.3,0.3,23.9-66.4,34.2-82.5c17.9-28,45.5,13.6,45.5,13.6
		s23.2,25.4,59.7,22"/>
	<path class="st11" d="M573.9,617.3c0,0,16.1-88.8,62.8-84.9c46.7,3.9,85.3,198.7,128.9,198.2C809.1,730,833.4,566,833.4,566"/>
	<ellipse class="st11" cx="710.1" cy="912.9" rx="20.3" ry="20.5"/>
	<path class="st11" d="M502.2,680.9c-26.9-2.3-12.9-201.1-42.8-201.1c-26.8,0-27.4,331.1-66.6,331.1c-34.7,0-21.6-315-46.3-314.9
		c-22.4,0.1-28,279.2-58.4,279.4c-27.1,0.2-30-198.1-49.3-198.1c-14.3,0-19.8,66.4-30,82.4c-17.9,28-45.5-13.6-45.5-13.6
		s-23.2-25.4-59.7-22"/>
	<path class="st5" d="M639,2018.9c-19.5,0-35.3-15.9-35.3-35.5c0-19.6,15.8-35.5,35.3-35.5c19.5,0,35.3,15.9,35.3,35.5
		C674.3,2003,658.5,2018.9,639,2018.9z M639,1977.9c-2.9,0-5.3,2.5-5.3,5.5c0,3,2.4,5.5,5.3,5.5c2.9,0,5.3-2.5,5.3-5.5
		C644.3,1980.4,641.9,1977.9,639,1977.9z"/>
	<path class="st5" d="M1238.5,1745.5c-0.8-8.2-8.1-14.3-16.3-13.5c-25.6,2.4-43.1-13.1-46.6-16.6c-4.8-7-21.6-28.7-42.4-28.7h-0.3
		c-7.6,0.1-18.5,3-27.2,16.6c-5.2,8.1-9.1,22.2-13.7,38.6c-1.1,3.8-2.4,8.6-3.9,13.6c-2-13.8-3.8-30.3-5.4-44.2
		c-3.2-28.1-6.4-57-10.9-80c-2.6-13.2-5.4-23.1-8.5-30.3c-7-16.1-16.7-19.5-23.7-19.5h-0.2c-10.3,0.1-18.3,7.3-23.6,21.3
		c-3,7.9-5.7,18.8-8.2,33.4c-4.4,25.8-7.8,60.7-11.1,94.4c-3,30.6-6.1,62.1-9.9,87.2c-1.2,7.9-2.4,14.4-3.5,19.8
		c-0.7-4.3-1.3-9.3-2.1-15.1c-2.9-23.2-5.3-52.2-7.9-82.9c-3.7-43.5-7.4-88.5-12.9-123.5c-3.1-19.6-6.4-34.2-10.2-44.8
		c-2.3-6.5-9.4-26.1-27.1-26.1c-12.6,0-22.3,9.2-28.9,27.4c-4.1,11.4-7.5,27.2-10.5,48.4c-5.2,37.7-8.1,85.8-10.8,132.4
		c-1.9,31.3-3.6,61-6,84.5c-0.3,2.8-0.5,5.4-0.8,7.8c-2.3-17.2-3.9-38.4-5.5-58.9c-1.8-24.2-3.7-49.2-6.9-68.1
		c-1.7-10.4-4.9-29.4-15.5-38.5v-354c0-30-24.4-54.4-54.4-54.4H487.2c-30,0-54.4,24.4-54.4,54.4v394.8c-0.5-3.1-1.1-6.7-1.7-10.9
		c-2.1-16.4-3.6-37-5.1-57c-1.9-25.8-3.8-52.4-7.2-72.7c-2.3-13.5-7.7-45.2-30.6-45.2c-19.4,0-24.9,25.3-29.7,55.8
		c-4.2,26.6-7.7,62.1-11.5,99.7c-4,40.6-8.2,82.5-13.5,116.4c-4,25.4-7.8,40.3-10.7,48.9c-2.1-8.4-4.6-22.2-7-44.9
		c-3.3-31.6-5.3-70.7-7.2-108.4c-1.9-36.2-3.6-70.5-6.4-96.3c-1.5-14.4-3.3-25.1-5.3-32.8c-4-14.9-11.3-22.5-21.6-22.5h-0.1
		c-14.5,0.1-19.6,15.5-21.3,20.6c-2.3,7-4.5,16.7-6.8,29.8c-4,23.3-7.5,54.1-11.2,86.7c-3.8,33-7.6,67.2-12.2,94.8
		c-2.7,16.2-5.1,27.2-7.2,34.7c-1.3-4.8-2.8-11.2-4.4-19.6c-3.7-19.4-6.8-43.1-9.8-66c-3-23-5.8-44.7-9.1-61.2
		c-1.9-9.5-3.8-16.7-5.9-21.9c-5.5-13.7-13.9-16.6-20-16.6c-16.3,0-22.6,17.9-25,24.6c-3.3,9.5-6.1,21.5-8.7,33.1
		c-2.6,11.6-6.3,27.4-9,31.7c-1.1,1.7-2,2.5-2.3,2.8c-3.9-0.3-13.1-9.2-18-16.5c-0.4-0.7-0.9-1.3-1.4-1.8
		c-1.2-1.3-28.8-30.9-72.1-26.8c-8.2,0.8-14.3,8.1-13.5,16.3s8.1,14.3,16.3,13.5c25.6-2.4,43.1,13.1,46.6,16.6
		c4.8,7,21.6,28.7,42.4,28.7h0.3c7.6-0.1,18.5-3,27.2-16.6c5.5-8.7,9-23.7,13-41.2c0.7-3.1,1.6-6.9,2.5-10.9
		c2.6,15.7,5.1,34.9,7.1,50c3.5,27.1,7.2,55.2,11.9,77.1c2.7,12.6,5.6,22,8.8,28.9c7.1,15.3,16.6,18.6,23.4,18.6h0.2
		c16.1-0.2,22.8-17.8,24.9-23.6c3.4-9.1,6.6-21.7,9.7-38.6c5.5-30.1,9.9-69.1,14.2-106.8c2.7-24.1,5.3-47,8.1-66.5
		c1.9,22.7,3.3,50.1,4.8,79.1c2.2,42.9,4.5,87.4,8.6,121.7c2.3,19.2,5,33.6,8.3,43.9c5.5,17.5,14.3,26.3,26,26.3
		c22.3,0,32-29.3,39.6-73.3c6.4-36.6,11.1-83.7,15.6-129.3c3.2-32.6,6.3-63.4,9.8-87.9c1-7.3,2-13.4,2.9-18.6c0.4,2.1,0.7,4.4,1,7
		c2.4,17.6,4,39.7,5.5,61c1.8,25.2,3.5,49,6.5,67.7c1.8,10.9,3.8,19.2,6.4,25.3c5.8,13.9,14.5,17.5,20.8,18.1c1,0.1,2,0.1,3-0.1
		v244.1c0,30,24.4,54.4,54.4,54.4h296.5c30,0,54.4-24.4,54.4-54.4V1862c3.7,20.8,10,41.9,27.7,44.2c0.6,0.1,1.3,0.1,1.9,0.1
		c10.3,0,17.7-7.4,21.9-22.1c2.2-7.6,4.1-18.3,5.8-32.6c3-25.6,5.1-60,7.2-96.4c2.5-41.4,5-84.2,9.2-119.1
		c3.6-29.8,7.5-45.4,10.4-53.5c2.7,7.9,6.3,22.4,10,49c4.5,32.3,7.9,72.1,11.1,110.5c3,35.4,5.8,68.9,9.3,94.1c2,14,4,24.5,6.3,32
		c1.6,5.3,6.5,21.4,21.1,22c13.7,0.6,21.4-11.4,25.5-21.5c3.4-8.3,6.3-20,9-35.5c4.8-27.5,8.4-64.2,11.9-99.7
		c2.8-29,5.8-59,9.3-82.5c1.6-10.5,3.1-18.4,4.4-24.3c1.2,4.9,2.6,11.3,3.9,19.4c3.5,20.4,6.2,44.9,8.9,68.6
		c2.4,21.6,4.7,42,7.4,57.3c1.6,8.9,3.1,15.3,4.8,20.2c4.8,13.6,12.9,16.6,18.8,16.7c0.1,0,0.3,0,0.4,0c20,0,27.3-26,36.5-58.8
		c3.3-11.7,7.4-26.2,10.1-30.6c1.1-1.7,1.9-2.5,2.3-2.8c3.9,0.3,13.1,9.2,18,16.6c0.4,0.6,0.9,1.2,1.4,1.8
		c1.1,1.2,25.3,27.2,64,27.2c2.6,0,5.4-0.1,8.1-0.4C1233.2,1761.1,1239.2,1753.8,1238.5,1745.5z M808,2010.4
		c0,13.4-10.9,24.4-24.4,24.4H487.2c-13.5,0-24.4-10.9-24.4-24.4v-684.2c0-13.4,10.9-24.4,24.4-24.4h296.5
		c13.4,0,24.4,10.9,24.4,24.4L808,2010.4L808,2010.4z"/>
	<path class="st5" d="M738.1,1327.1h-209c-24.2,0-43.8,17.2-43.8,38.5v530.1c0,21.3,19.6,38.5,43.8,38.5h209
		c24.2,0,43.8-17.2,43.8-38.5v-530.1C781.9,1344.4,762.3,1327.1,738.1,1327.1z M515.3,1365.6c0-3.5,5.4-8.5,13.8-8.5h209
		c8.4,0,13.8,5,13.8,8.5v260c-2.3,2.2-3.9,5.2-4.4,8.6c-0.1,0.4-6.1,40.7-17.3,80.4c-16.4,58.3-31.5,71.2-35.9,71.3
		c-0.1,0-6.4-0.8-19.3-23.5c-9.7-17.1-19.8-40.8-29.6-63.7c-24.7-58.1-46.1-108.2-78.7-110.9c-14.6-1.2-34.1,3.3-51.5,28
		L515.3,1365.6L515.3,1365.6z M751.9,1895.8c0,3.5-5.4,8.5-13.8,8.5h-209c-8.4,0-13.8-5-13.8-8.5V1696c1.1-1.6,1.8-3.5,2.2-5.5
		c0-0.2,3.9-21,13-40.8c7-15.2,18.5-33.1,33.8-31.8c0.8,0.1,8.2,1.3,22.2,25.6c10.5,18.2,21.1,43.1,31.3,67.1
		c25.1,58.9,44.9,105.5,76.4,105.5h0.4c22.7-0.3,41.2-22.6,57.2-69.9L751.9,1895.8L751.9,1895.8z"/>
</g>
<g id="Layer_10" class="st0">
	<polyline class="st11" points="34.3,751.4 34.3,385 319.7,302.2 319.7,646.9 	"/>
	<path class="st15" d="M-74.8,799.4c10.9,22.3,43.3,27.7,72.4,12c29.1-15.7,43.8-46.5,32.9-68.8c-10.9-22.3-43.3-27.7-72.4-12
		C-71,746.2-85.7,777.1-74.8,799.4z"/>
	<path class="st15" d="M210.9,696.7c10.9,22.3,43.3,27.7,72.4,12c29.1-15.7,43.8-46.5,32.9-68.8c-10.9-22.3-43.3-27.7-72.4-12
		C214.7,643.6,200,674.4,210.9,696.7z"/>
	<polygon class="st15" points="319.7,352.2 34.3,431.5 34.3,385 319.7,302.2 	"/>
	<path class="st11" d="M478,827.7c0,40.2-32.6,72.7-72.7,72.7h-521.6c-40.2,0-72.7-32.6-72.7-72.7V306.1c0-40.2,32.6-72.7,72.7-72.7
		h521.6c40.2,0,72.7,32.6,72.7,72.7V827.7z"/>
	<path class="st5" d="M1179.2,683.3c-7.6,15.8-21,29.6-37.8,38.6c-13.1,7.1-27.2,10.8-40.9,10.8c-23.6,0-43.1-11-52-29.4
		c-7.3-15-6.8-32.7,1.4-50c7.6-15.8,21-29.6,37.9-38.6c13.1-7.1,27.2-10.8,40.9-10.8c9.9,0,19.1,2,27.1,5.6V371.9l-255.4,70.9v308.5
		c0,1.2-0.1,2.4-0.4,3.5c0.7,10-1.5,20.6-6.4,31c-7.6,15.8-21,29.6-37.9,38.6c-13.1,7.1-27.2,10.8-40.9,10.8c-23.6,0-43-11-52-29.4
		c-7.3-15-6.8-32.7,1.4-49.9c7.6-15.8,21-29.6,37.8-38.6c13.1-7.1,27.2-10.8,40.9-10.8c10.1,0,19.4,2,27.5,5.7V385
		c0-6.7,4.4-12.5,10.8-14.4l285.4-82.8c4.5-1.3,9.4-0.4,13.2,2.4c3.8,2.8,6,7.3,6,12v344.8c0,1-0.1,2-0.3,3
		C1186.7,660.7,1184.6,672.1,1179.2,683.3z"/>
	<path class="st5" d="M1256.3,915.5H734.7c-48.4,0-87.7-39.4-87.7-87.7V306.1c0-48.4,39.4-87.7,87.7-87.7h521.6
		c48.4,0,87.7,39.4,87.7,87.7v521.6C1344,876.1,1304.7,915.5,1256.3,915.5z M734.7,248.4c-31.8,0-57.7,25.9-57.7,57.7v521.6
		c0,31.8,25.9,57.7,57.7,57.7h521.6c31.8,0,57.7-25.9,57.7-57.7V306.1c0-31.8-25.9-57.7-57.7-57.7L734.7,248.4L734.7,248.4z"/>
</g>
</svg>
