<svg id="Layer_1" data-name="Layer 1" xmlns="http://www.w3.org/2000/svg" viewBox="0 0 64 64"><title>Icon-scalability-blue</title><g id="Deploy"><rect x="15.37" y="34.21" width="15.52" height="15.52" rx="1.94" ry="1.94" style="fill:#088dd0"/><polygon points="41.51 33.72 41.51 23.36 31.19 23.36 41.51 33.72" style="fill:#088dd0"/><path d="M27.1,38.48a.74.74,0,0,1-.5-.2.7.7,0,0,1,0-1L38.24,25.64a.71.71,0,0,1,1,1L27.6,38.28A.74.74,0,0,1,27.1,38.48Z" style="fill:#088dd0"/></g><path d="M46.09,44.06,46,43.94H41.58v-2h4.24l.22-.12a1,1,0,0,0,.54-.88V39.11h2v1.83A3,3,0,0,1,47,43.59l-.4.21v.14h-.26Zm-7.51-.12h-5v-2h5Zm-8,0h-5v-2h5Zm-9-.7-.48-.87a3,3,0,0,1-.37-1.43v-3h2v3a1.13,1.13,0,0,0,.12.47l.48.88Zm27-7.13h-2v-5h2ZM22.72,34.93h-2v-5h2Zm25.86-6.82h-2v-5h2ZM22.72,26.93h-2v-5h2Zm23.86-6.82v-1a1,1,0,0,0-.92-1l-1-.08.16-2,1,.08a3,3,0,0,1,2.76,3v1Zm-24.24-.73-1.67-1.1.54-.84a3,3,0,0,1,2.51-1.36h2v2h-2a1,1,0,0,0-.83.46Zm19.4-1.3h-5v-2h5Zm-8,0h-5v-2h5Z" style="fill:#088dd0"/></svg>